<mxfile host="65bd71144e" scale="2" border="0">
    <diagram id="rV0emhWhx8XfO6uWxAvr" name="Page-1">
        <mxGraphModel dx="1826" dy="1337" grid="1" gridSize="10" guides="1" tooltips="1" connect="1" arrows="1" fold="1" page="1" pageScale="1" pageWidth="827" pageHeight="1169" math="0" shadow="0">
            <root>
                <mxCell id="0"/>
                <mxCell id="1" parent="0"/>
                <mxCell id="51" value="&lt;b&gt;opt&lt;/b&gt;" style="shape=umlFrame;tabWidth=110;tabHeight=30;tabPosition=left;html=1;boundedLbl=1;labelInHeader=1;width=60;height=30;recursiveResize=0;" parent="1" vertex="1">
                    <mxGeometry x="80" y="414" width="690" height="540" as="geometry"/>
                </mxCell>
                <mxCell id="225" value="&lt;b&gt;alt&lt;/b&gt;" style="shape=umlFrame;tabWidth=110;tabHeight=30;tabPosition=left;html=1;boundedLbl=1;labelInHeader=1;width=50;height=30;strokeWidth=1;" vertex="1" parent="1">
                    <mxGeometry x="100" y="534" width="650" height="310" as="geometry"/>
                </mxCell>
                <mxCell id="226" value="[result &lt;= SPAWN_FLYING_KOOPA_INSTEAD_CHANCE]" style="text;dashed=1;strokeWidth=0;" vertex="1" parent="225">
                    <mxGeometry width="290" height="20" relative="1" as="geometry">
                        <mxPoint x="110" y="20" as="offset"/>
                    </mxGeometry>
                </mxCell>
                <mxCell id="227" value="[else]" style="line;strokeWidth=1;dashed=1;labelPosition=center;verticalLabelPosition=bottom;align=left;verticalAlign=top;spacingLeft=20;spacingTop=15;" vertex="1" parent="225">
                    <mxGeometry y="155" width="650" height="12.399999999999999" as="geometry"/>
                </mxCell>
                <mxCell id="10" value="new Random()" style="html=1;verticalAlign=bottom;endArrow=block;entryX=0.455;entryY=0.094;entryDx=0;entryDy=0;entryPerimeter=0;" parent="1" source="8" target="4" edge="1">
                    <mxGeometry width="80" relative="1" as="geometry">
                        <mxPoint x="190" y="304" as="sourcePoint"/>
                        <mxPoint x="270" y="304" as="targetPoint"/>
                    </mxGeometry>
                </mxCell>
                <mxCell id="3" value=":Mature" style="shape=umlLifeline;perimeter=lifelinePerimeter;whiteSpace=wrap;html=1;container=1;collapsible=0;recursiveResize=0;outlineConnect=0;" parent="1" vertex="1">
                    <mxGeometry x="130" y="174" width="120" height="820" as="geometry"/>
                </mxCell>
                <mxCell id="7" value="tick(location)" style="html=1;verticalAlign=bottom;endArrow=block;" parent="3" target="8" edge="1">
                    <mxGeometry width="80" relative="1" as="geometry">
                        <mxPoint x="-60" y="80" as="sourcePoint"/>
                        <mxPoint x="50" y="91" as="targetPoint"/>
                    </mxGeometry>
                </mxCell>
                <mxCell id="8" value="" style="html=1;points=[];perimeter=orthogonalPerimeter;" parent="3" vertex="1">
                    <mxGeometry x="55" y="60" width="10" height="740" as="geometry"/>
                </mxCell>
                <mxCell id="4" value="r:Random" style="shape=umlLifeline;perimeter=lifelinePerimeter;whiteSpace=wrap;html=1;container=1;collapsible=0;recursiveResize=0;outlineConnect=0;" parent="1" vertex="1">
                    <mxGeometry x="290" y="244" width="100" height="750" as="geometry"/>
                </mxCell>
                <mxCell id="9" value="" style="html=1;points=[];perimeter=orthogonalPerimeter;" parent="4" vertex="1">
                    <mxGeometry x="45" y="60" width="10" height="40" as="geometry"/>
                </mxCell>
                <mxCell id="205" value="" style="html=1;points=[];perimeter=orthogonalPerimeter;" vertex="1" parent="4">
                    <mxGeometry x="45" y="120" width="10" height="40" as="geometry"/>
                </mxCell>
                <mxCell id="210" value="" style="html=1;points=[];perimeter=orthogonalPerimeter;" vertex="1" parent="4">
                    <mxGeometry x="45" y="230" width="10" height="40" as="geometry"/>
                </mxCell>
                <mxCell id="55" value="r: Random" style="html=1;verticalAlign=bottom;endArrow=open;dashed=1;endSize=8;exitX=-0.248;exitY=0.791;exitDx=0;exitDy=0;exitPerimeter=0;" parent="1" source="9" target="8" edge="1">
                    <mxGeometry x="-0.0908" relative="1" as="geometry">
                        <mxPoint x="630" y="523.9599999999998" as="sourcePoint"/>
                        <mxPoint x="495" y="523.9599999999998" as="targetPoint"/>
                        <Array as="points"/>
                        <mxPoint as="offset"/>
                    </mxGeometry>
                </mxCell>
                <mxCell id="197" value="" style="group" parent="1" vertex="1" connectable="0">
                    <mxGeometry x="400" y="174" width="100" height="820" as="geometry"/>
                </mxCell>
                <mxCell id="5" value="location:Location" style="shape=umlLifeline;perimeter=lifelinePerimeter;whiteSpace=wrap;html=1;container=1;collapsible=0;recursiveResize=0;outlineConnect=0;" parent="197" vertex="1">
                    <mxGeometry width="100" height="820" as="geometry"/>
                </mxCell>
                <mxCell id="246" value="" style="html=1;points=[];perimeter=orthogonalPerimeter;" vertex="1" parent="5">
                    <mxGeometry x="45.24000000000001" y="700" width="10" height="44.82" as="geometry"/>
                </mxCell>
                <mxCell id="201" value="" style="group" parent="1" vertex="1" connectable="0">
                    <mxGeometry x="620" y="724" width="110" height="270" as="geometry"/>
                </mxCell>
                <mxCell id="24" value=":Koopa" style="shape=umlLifeline;perimeter=lifelinePerimeter;whiteSpace=wrap;html=1;container=1;collapsible=0;recursiveResize=0;outlineConnect=0;" parent="201" vertex="1">
                    <mxGeometry width="110" height="270" as="geometry"/>
                </mxCell>
                <mxCell id="237" value="" style="html=1;points=[];perimeter=orthogonalPerimeter;" vertex="1" parent="201">
                    <mxGeometry x="50" y="50" width="10" height="50" as="geometry"/>
                </mxCell>
                <mxCell id="202" value="" style="group" parent="1" vertex="1" connectable="0">
                    <mxGeometry x="510" y="584" width="100" height="410" as="geometry"/>
                </mxCell>
                <mxCell id="15" value=":FlyingKoopa" style="shape=umlLifeline;perimeter=lifelinePerimeter;whiteSpace=wrap;html=1;container=1;collapsible=0;recursiveResize=0;outlineConnect=0;" parent="202" vertex="1">
                    <mxGeometry width="100" height="410" as="geometry"/>
                </mxCell>
                <mxCell id="240" value="" style="html=1;points=[];perimeter=orthogonalPerimeter;" vertex="1" parent="202">
                    <mxGeometry x="45" y="50" width="10" height="50" as="geometry"/>
                </mxCell>
                <mxCell id="74" value="[result &lt;= SPAWN_KOOPA_CHANCE]" style="text" parent="1" vertex="1">
                    <mxGeometry x="220" y="434" width="210" height="10" as="geometry"/>
                </mxCell>
                <mxCell id="204" value="nextInt(100) + 1" style="html=1;verticalAlign=bottom;endArrow=block;" edge="1" parent="1" source="3">
                    <mxGeometry width="80" relative="1" as="geometry">
                        <mxPoint x="195" y="420.2800000000002" as="sourcePoint"/>
                        <mxPoint x="330" y="374" as="targetPoint"/>
                    </mxGeometry>
                </mxCell>
                <mxCell id="206" value="result: int" style="html=1;verticalAlign=bottom;endArrow=open;dashed=1;endSize=8;exitX=-0.248;exitY=0.791;exitDx=0;exitDy=0;exitPerimeter=0;" edge="1" parent="1" source="205" target="3">
                    <mxGeometry x="-0.0908" relative="1" as="geometry">
                        <mxPoint x="630" y="658.9599999999998" as="sourcePoint"/>
                        <mxPoint x="195" y="450.6400000000003" as="targetPoint"/>
                        <Array as="points"/>
                        <mxPoint as="offset"/>
                    </mxGeometry>
                </mxCell>
                <mxCell id="209" value="nextInt(100) + 1" style="html=1;verticalAlign=bottom;endArrow=block;entryX=-0.142;entryY=0.032;entryDx=0;entryDy=0;entryPerimeter=0;" edge="1" parent="1" target="210" source="3">
                    <mxGeometry width="80" relative="1" as="geometry">
                        <mxPoint x="195.00000000000023" y="555.2800000000002" as="sourcePoint"/>
                        <mxPoint x="40" y="534" as="targetPoint"/>
                    </mxGeometry>
                </mxCell>
                <mxCell id="211" value="result: int" style="html=1;verticalAlign=bottom;endArrow=open;dashed=1;endSize=8;exitX=-0.248;exitY=0.791;exitDx=0;exitDy=0;exitPerimeter=0;" edge="1" parent="1" source="210" target="3">
                    <mxGeometry x="-0.0908" relative="1" as="geometry">
                        <mxPoint x="400" y="753.9599999999998" as="sourcePoint"/>
                        <mxPoint x="195.00000000000023" y="585.6400000000003" as="targetPoint"/>
                        <Array as="points"/>
                        <mxPoint as="offset"/>
                    </mxGeometry>
                </mxCell>
                <mxCell id="239" value="new&amp;nbsp;&lt;span style=&quot;font-size: 12px&quot;&gt;FlyingKoopa&lt;/span&gt;()" style="html=1;verticalAlign=bottom;endArrow=block;entryX=0;entryY=0.187;entryDx=0;entryDy=0;entryPerimeter=0;" edge="1" parent="1" target="240" source="3">
                    <mxGeometry width="80" relative="1" as="geometry">
                        <mxPoint x="414.55" y="944.6088888888887" as="sourcePoint"/>
                        <mxPoint x="-70.45000000000005" y="919" as="targetPoint"/>
                    </mxGeometry>
                </mxCell>
                <mxCell id="241" value="actor:&amp;nbsp;&lt;span style=&quot;font-size: 12px&quot;&gt;FlyingKoopa&lt;/span&gt;" style="html=1;verticalAlign=bottom;endArrow=open;dashed=1;endSize=8;exitX=-0.248;exitY=0.791;exitDx=0;exitDy=0;exitPerimeter=0;" edge="1" parent="1" source="240" target="3">
                    <mxGeometry x="0.0062" relative="1" as="geometry">
                        <mxPoint x="289.55" y="1055.4566666666665" as="sourcePoint"/>
                        <mxPoint x="414.55" y="963.4433333333333" as="targetPoint"/>
                        <Array as="points"/>
                        <mxPoint as="offset"/>
                    </mxGeometry>
                </mxCell>
                <mxCell id="236" value="new&amp;nbsp;&lt;span style=&quot;font-size: 12px&quot;&gt;Koopa&lt;/span&gt;()" style="html=1;verticalAlign=bottom;endArrow=block;" edge="1" parent="1" source="3">
                    <mxGeometry width="80" relative="1" as="geometry">
                        <mxPoint x="530" y="940.5540740740739" as="sourcePoint"/>
                        <mxPoint x="670" y="784" as="targetPoint"/>
                    </mxGeometry>
                </mxCell>
                <mxCell id="238" value="actor:&amp;nbsp;&lt;span style=&quot;font-size: 12px&quot;&gt;Koopa&lt;/span&gt;" style="html=1;verticalAlign=bottom;endArrow=open;dashed=1;endSize=8;exitX=-0.248;exitY=0.791;exitDx=0;exitDy=0;exitPerimeter=0;" edge="1" parent="1" source="237" target="3">
                    <mxGeometry x="-0.0057" relative="1" as="geometry">
                        <mxPoint x="965" y="1047.8692592592593" as="sourcePoint"/>
                        <mxPoint x="530" y="955.4529629629629" as="targetPoint"/>
                        <Array as="points"/>
                        <mxPoint as="offset"/>
                    </mxGeometry>
                </mxCell>
                <mxCell id="247" value="&lt;span style=&quot;font-size: 12px&quot;&gt;addActor(actor)&lt;/span&gt;" style="html=1;verticalAlign=bottom;endArrow=block;entryX=-0.138;entryY=0.506;entryDx=0;entryDy=0;entryPerimeter=0;" edge="1" parent="1" target="246" source="3">
                    <mxGeometry width="80" relative="1" as="geometry">
                        <mxPoint x="79.99925925925913" y="875.43424" as="sourcePoint"/>
                        <mxPoint x="-180.21000000000004" y="1159" as="targetPoint"/>
                    </mxGeometry>
                </mxCell>
            </root>
        </mxGraphModel>
    </diagram>
</mxfile>